<svg version="1" xmlns="http://www.w3.org/2000/svg" width="1512" height="1512" viewBox="0 0 1134.000000 1134.000000"><path d="M575.5 164.2c-4.4.5-11.8 1.7-16.5 2.8-4.7 1-9.9 2.1-11.7 2.4-1.7.3-5.1 1.4-7.5 2.5-2.4 1-6.7 2.7-9.7 3.7-2.9 1.1-5.6 2.5-5.8 3.1-.3.7-1.2 1.3-2 1.3-2.4 0-15.2 7.9-24.9 15.5-6 4.7-19 17.9-22 22.4-1.4 2.3-3.1 4.1-3.5 4.1-.5 0-.9.7-.9 1.5s-.9 2.2-1.9 3.2c-1.1 1-3 3.8-4.3 6.3-1.4 2.5-3.2 5.8-4.1 7.5-3.4 6.2-7.7 16.5-7.7 18.5 0 1.1-.7 3.7-1.6 5.8-3.4 7.9-4.5 16.3-4.5 36.2 0 19.7.9 27.1 4.5 36.9.9 2.4 1.6 5 1.6 5.9 0 1.4 3.2 9.1 7.9 19.2.9 1.9 2.2 4.1 2.9 4.8.6.7 1.2 1.9 1.2 2.6 0 .7 1.3 3.1 3 5.2 1.6 2.2 3.3 4.3 3.7 4.9.5.5 1.7 2.3 2.7 4 4.8 7.5 24.8 25.5 34.5 31 1 .6 2.6 1.8 3.6 2.8 1.5 1.6 1.6 2 .4 2.8-.8.5-1.8.9-2.2.9-.5 0-2.3 1-4 2.2-4.2 3-6.8 4.6-8.9 5.4-.9.3-1.9 1.2-2.2 2-.3.8-1.1 1.4-1.9 1.4-.7 0-2.6 1.3-4.2 3-1.6 1.6-3.4 3-4.1 3-1.3 0-31.5 29.4-33 32.2-.5.9-2.8 3.8-5.1 6.5-2.4 2.6-5.7 6.9-7.4 9.5-1.7 2.7-3.5 4.8-4 4.8s-.9.7-.9 1.6c0 .9-1.1 3-2.6 4.8-3.9 4.8-9.4 13.7-9.4 15.2 0 .7-.6 1.7-1.3 2.1-1.5.9-4.7 6.9-4.7 8.9 0 .7-.6 1.7-1.4 2.1-1.4.9-4.3 6.6-4.8 9.7-.5 3-4.5 2.8-5.7-.3-.5-1.4-1.7-3.5-2.7-4.6-1.1-1.1-3.7-4.3-5.8-7-9.5-12-25.6-26.5-39.3-35.6-2.9-1.9-5.2-3.6-5.2-3.9 0-.3 2-1.8 4.4-3.3 4.8-3 8.5-6 11.5-9 1-1.1 2.3-2.4 3-3 .6-.7 1.9-2 2.8-2.9.9-1 2.9-3 4.5-4.5 1.5-1.4 2.7-3.2 2.7-3.9 0-.7.9-1.8 2-2.4 1.1-.6 2-1.5 2-2 0-.6 1.5-3.1 3.3-5.7 4.9-7 9.1-16.3 13.4-29.3l3.7-11.5v-22c0-22.1-.4-25.8-4.4-35-.5-1.1-1.2-3.1-1.5-4.5-1-3.9-3.8-10.4-5.2-11.8-.7-.7-1.3-2.2-1.3-3.1 0-1-.7-2.4-1.5-3.1-.8-.7-1.5-1.9-1.5-2.6 0-.8-.4-1.4-.9-1.4s-1.3-1-1.7-2.3c-1.6-5.1-24.1-29.7-27.2-29.7-.6 0-1.5-.6-1.9-1.3-.8-1.3-9.9-7.7-10.9-7.7-.3 0-1.2-.7-2-1.5-.9-.8-2.4-1.5-3.5-1.5s-2.2-.7-2.5-1.5c-.4-.8-1.2-1.5-1.9-1.5s-2.6-.7-4.1-1.5c-1.6-.8-3.6-1.5-4.5-1.5-.8 0-1.9-.4-2.5-.9-1.6-1.4-7.5-3.3-15.4-4.7-4.1-.7-9.5-1.8-12-2.3-7.6-1.7-23-1.2-34.6.9-12.4 2.3-21.1 4.8-22 6.1-.3.5-1.3.9-2.3.9-2.3 0-17 7.3-20 9.9-1.3 1.2-2.9 2.1-3.5 2.1-.6 0-2.2 1-3.6 2.3-1.4 1.2-4 3.3-5.9 4.7-4.4 3-12.6 11.3-17.1 17-1.9 2.5-4 4.9-4.7 5.3-.7.4-1.3 1.3-1.3 1.8 0 .6-1.1 2.5-2.5 4.3-1.4 1.8-2.5 3.6-2.5 4.1 0 .4-1.3 2.9-2.9 5.4-1.5 2.6-3.2 5.8-3.6 7.2-.4 1.3-1.6 4.4-2.8 6.8-1.1 2.5-2.6 7.4-3.3 11-.7 3.6-1.7 8.4-2.3 10.6-1.8 7-1.3 30 .9 41.1 2.5 12.3 4 17.5 5.7 19.5.7.8 1.3 2.4 1.3 3.5 0 1 .7 3.2 1.6 4.9.9 1.6 2.9 5.5 4.5 8.6 1.5 3.1 3.5 6.1 4.3 6.9.9.7 1.6 1.8 1.6 2.4 0 .6 1.5 2.7 3.3 4.7 1.7 2 4.1 4.7 5.3 6 3.2 3.7 14.2 13.7 17.2 15.7 1.4.9 3.7 2.7 5.1 3.9 1.3 1.3 2.9 2.3 3.6 2.3 1.4 0 4.5 3.2 4.5 4.6 0 .5-1.8 1.7-4 2.8-2.1 1-4.1 2.5-4.4 3.2-.3.8-1.2 1.4-2 1.4s-2.3 1.1-3.4 2.5-2.5 2.5-3 2.5c-1 0-18.8 17.5-24.5 24.2-1.6 1.8-4.2 4.8-5.8 6.5-1.6 1.8-2.9 3.7-2.9 4.2s-1.6 2.6-3.5 4.7c-1.9 2.2-3.5 4.7-3.5 5.6 0 1-.4 1.8-.9 1.8-1.2 0-9.4 12.8-10.4 16.2-.4 1.6-1.1 2.8-1.6 2.8-.4 0-1.8 2.1-3 4.7-1.2 2.7-2.6 5.5-3.1 6.3-.5.8-1.7 3.1-2.6 5-.8 1.9-2.9 6.2-4.5 9.5s-2.9 6.4-2.9 6.8c0 .5-1.4 3.8-3 7.4-1.7 3.5-3 7.2-3 8.1 0 .9-.6 2.8-1.3 4.2-.7 1.4-2 4.7-2.9 7.5-.9 2.7-2.8 8.7-4.3 13.3-1.5 4.6-3.4 11.1-4.1 14.5-.7 3.4-2 8.9-2.9 12.2-.9 3.3-2.1 9.4-2.6 13.5s-1.4 9-2 10.9c-1.5 4.6-2.8 13.2-3.9 27.1-.5 6.3-1.6 17.3-2.4 24.5-.9 7.1-1.6 19.3-1.6 26.9 0 12.7.2 14.4 2.4 19 2.6 5.5 8.6 12.6 10.7 12.6.7 0 2.1.8 3.1 1.7 1.3 1.2 4.1 1.9 8.7 2.1 9.3.5 16.8-3.1 22.7-11.1l4.1-5.5.6-16.9c.8-20.1 2.3-38.3 4.3-50.9.8-5 1.4-10.8 1.4-12.8s.7-6.4 1.6-9.9c.9-3.4 2.2-8.7 3-11.8.8-3 1.4-6.9 1.4-8.7 0-1.7.6-4.6 1.4-6.4.8-1.8 2.2-6.2 3.1-9.8.9-3.6 2.1-7.9 2.6-9.5.6-1.7 1.9-5.9 3-9.5 1.1-3.6 2.6-7.9 3.3-9.5 3.7-8.3 4.6-10.4 4.6-11.1 0-.5 1.1-3.1 2.4-5.9 1.3-2.7 2.8-6.1 3.4-7.5.6-1.4 3.2-6.1 5.7-10.5s5.1-9.2 5.8-10.8c.6-1.5 1.5-2.7 1.9-2.7.4 0 1.9-2.1 3.2-4.8 1.3-2.6 3.3-5.6 4.5-6.6 1.2-1.1 2.1-2.4 2.1-3.1 0-1.3 2.6-4.2 15.9-17.8 4.7-4.9 9.8-9.5 11.4-10.3 1.5-.8 2.7-1.9 2.7-2.5 0-.5 1.4-1.5 3-2 1.7-.6 3-1.4 3-1.9 0-1.3 18.4-10 21.1-10 1.4 0 2.9-.4 3.5-.9.5-.5 5-1.5 9.9-2.2 7.7-1 10.1-1 17 .4 12.9 2.5 16.4 3.6 20.3 6.1 2 1.3 4.7 2.6 6 3 1.2.4 2.2 1.2 2.2 1.7s.7.9 1.5.9c.9 0 1.8.7 2.1 1.5.4.8 1.2 1.5 2 1.5s2.6 1.3 4.1 3c1.4 1.6 3.1 3 3.7 3 .6 0 1.6 1 2.1 2.2.6 1.3 2 2.7 3.3 3.3 1.2.5 2.2 1.5 2.2 2.2 0 .7 1.4 2.2 3 3.5 1.7 1.2 3 2.7 3 3.3 0 .6 1.1 2.2 2.5 3.5 1.3 1.3 3.4 4.2 4.6 6.4 1.2 2.3 2.7 4.5 3.5 4.9.8.4 1.4 1.7 1.4 2.8 0 1.1.6 2.2 1.4 2.5.8.3 1.7 1.3 2 2.2.3.9 2.2 4.4 4.1 7.7 4.6 7.8 5.7 10.5 5.7 13.5.1 3.9-1.2 10.2-2.8 13.7-.8 1.7-1.4 3.9-1.4 4.8 0 .9-.5 2.6-1.1 3.7-.6 1.1-1.5 4.4-2 7.2-.4 2.8-1.9 9.4-3.3 14.6-1.5 5.2-2.6 10.7-2.6 12.3 0 1.5-.7 5.6-1.4 9-2.8 11.9-4.6 22.8-4.6 28 0 2.8-.5 7-1 9.2-4.3 18-6 88-2.7 110.6.9 6.4 2.1 12.9 2.7 14.3.5 1.5 1 4.4 1 6.4 0 4.2 3.4 17 5 18.6.5.5 1 2 1 3.1 0 1.2 1.1 4.2 2.5 6.6 1.3 2.4 3.4 6.5 4.7 9.1 1.3 2.7 2.9 4.8 3.5 4.8.7 0 1.3.6 1.3 1.3 0 1.1 6.3 7.4 12.6 12.7 2.7 2.2 12.3 6.9 17.4 8.6 6.1 1.9 19.9 1.8 26.1-.2 2.7-.9 4.9-2 4.9-2.5s.5-.9 1.1-.9c1.9 0 8.4-3.3 9.2-4.8.5-.7 2-1.7 3.3-2.2 1.4-.6 2.7-1.7 3.1-2.5.3-.9 1.7-2.9 3.2-4.4 4.5-4.8 9.1-11.9 9.1-13.9 0-1.1.6-2.5 1.3-3.1.8-.6 2.2-3.7 3.1-6.8 1-3.2 2.4-7.8 3.2-10.3 1.3-4.4 1.6-5.6 3.5-17 .5-3 .9-14.5.9-25.5 0-19.7-1.4-35.4-4.6-51.3-.7-4-1.4-9.4-1.4-12.1 0-4.6-1-11-4.4-27.6-.8-3.9-1.9-9.9-2.5-13.5-1.4-8.9-1.8-11-3.6-16-.8-2.3-1.5-5.6-1.5-7.3 0-3.3-2.3-12.1-4.6-17.5-.8-1.8-1.4-4.5-1.4-6-.1-2.5-1.8-8.2-4.8-15.5-.7-1.6-1.2-3.7-1.2-4.7s-1.3-5.1-3-9.1c-1.6-4.1-3-8.2-3-9.2s-1.4-4.8-3.1-8.4c-2.6-5.5-3-7.6-2.6-11.7.2-2.8 1-5.2 1.6-5.4.6-.2 1.1-1.1 1.1-2.1 0-.9.7-2.6 1.5-3.7.8-1 1.5-2.9 1.5-4 0-1.2.7-2.7 1.5-3.4.8-.7 1.5-2 1.5-2.9 0-.9.7-2.5 1.5-3.5.8-1.1 1.5-2.7 1.5-3.5 0-.9 1.4-3.6 3-6.1 1.6-2.5 3-5.1 3-5.8 0-.7 1.4-3.1 3-5.4 1.7-2.2 3-4.8 3-5.6 0-.8 1.4-3.1 3-5.2 1.7-2.1 3-4.4 3-5.1.1-.8 1.4-3 3-4.9 1.7-1.9 3-3.9 3-4.5 0-.5 1.4-2.5 3-4.4 1.7-1.8 3-3.7 3-4.2 0-.4 1.2-2 2.8-3.6 1.5-1.6 4.1-4.7 5.7-6.8 5.1-6.6 26.4-27.5 28-27.5.4 0 2.3-1.4 4.2-3 1.8-1.7 3.8-3 4.4-3 .6 0 1.7-.6 2.4-1.3 2.8-2.4 4.2-3.3 11.5-7 4.1-2 8.3-3.7 9.2-3.7.9 0 2-.5 2.3-1 .3-.6 1.5-1 2.6-1s3.2-.6 4.7-1.4c1.5-.7 5.6-1.6 9.2-1.9 3.6-.4 8.2-.9 10.3-1.3 3.9-.7 24.7 1.2 28.2 2.5 1.1.5 3.1 1.3 4.5 1.9 1.4.5 4.5 1.6 7 2.3 2.5.7 5.2 1.9 6.1 2.6.8.7 2.3 1.3 3.1 1.3.9 0 2.1.7 2.8 1.5.7.8 1.8 1.5 2.6 1.5.7 0 2.5 1.1 4 2.5s3.2 2.5 3.9 2.5c.6 0 2.5 1.2 4.1 2.6 1.6 1.4 4.1 3.2 5.6 4 1.5.8 3.2 2.3 3.8 3.4.6 1.1 1.6 2 2.3 2 .7 0 2.3 1.3 3.5 3 1.3 1.6 2.9 3 3.7 3 .8 0 1.5.6 1.5 1.3 0 .7 1.5 2.7 3.3 4.3 4.7 4.4 13.9 15 16.2 18.8 1.1 1.8 2.8 4 3.8 5 .9 1 1.7 2.3 1.7 3 0 .7.9 2.1 2 3.1s3 3.8 4.3 6.3c1.2 2.4 2.7 4.7 3.4 4.9.7.3 1.3 1.3 1.3 2.3 0 1 .6 2.5 1.3 3.2 1.6 1.8 3.6 4.9 4.3 6.8.3.8 1.2 2.8 2.1 4.5 5.6 10.5 10.3 20.2 10.3 21.6 0 .9.7 2.2 1.5 2.9.8.7 1.5 2 1.5 3s.7 2.3 1.5 3c.8.7 1.5 2.4 1.5 3.9.1 1.4.7 3.7 1.5 5.1 1.9 3.2 1.9 6.1 0 9.6-.8 1.6-1.5 3.8-1.5 4.9 0 1.1-.6 2.9-1.3 4-1.8 2.7-4.7 10.6-4.7 12.9 0 1-.6 3.2-1.4 4.9-3 6.8-4.6 11.8-4.6 14.3 0 1.4-.6 3.8-1.4 5.2-1.3 2.5-2 5-5.5 19.2-.6 2.5-2 7.8-3.1 11.9-1.1 4.1-2 8.9-2 10.7 0 1.8-.4 4.4-1 5.9-1.6 4.1-5 21.5-5 25.3 0 1.9-.6 6-1.4 9.1-.8 3.1-1.7 7.8-2 10.6-.3 2.7-1 7.4-1.6 10.4-.5 2.9-1 7.6-1 10.2 0 2.7-.7 9.3-1.6 14.7-2.2 13.5-2.2 45.9 0 56.2.9 4.1 1.6 8.7 1.6 10.1 0 3.1 3.6 14.9 5 16.3.6.6 1 1.8 1 2.7 0 2.2 3.1 8.1 4.8 9.2.6.4 1.2 1.6 1.2 2.5 0 1.7 6.4 9.6 10.9 13.6 7.5 6.6 8.7 7.6 10.1 7.6.9 0 2.4.6 3.5 1.3 7.3 5 23.9 6.3 33.5 2.6 3-1.2 6.9-2.6 8.5-3.3 1.7-.6 4.6-2.2 6.4-3.6 5.9-4.4 17.1-16.4 17.1-18.2 0-1 .4-1.8.9-1.8 1.3 0 5.1-6.7 5.1-8.9 0-1 .7-2.4 1.5-3.1.8-.7 1.5-2.1 1.5-3.1s.4-2 .9-2.4c.6-.3 1.3-2.7 1.6-5.3.4-2.6 1-5.6 1.5-6.7 1.8-3.8 4.1-17 5-28.5.6-6.3 1.4-16.2 2-22 1.9-20.5.7-52.3-3.2-87.5-.6-5.5-1.2-11.8-1.5-14-.2-2.2-1.1-6.5-1.9-9.6-.8-3.1-1.4-7.2-1.4-9.1 0-4.2-3.7-22.4-5.1-24.9-.5-1-.9-3.3-.9-5.2 0-3.4-1.8-10.2-4.6-18-.8-2-1.4-4.8-1.4-6.1 0-2.1-4.3-15.2-5.3-16.3-.6-.5 5.5-12.4 8.3-16.3 1.1-1.5 2.4-3.8 3-5.1.6-1.3 1.9-3.8 3-5.4 1.1-1.7 2.3-3.7 2.7-4.5.3-.8 1.8-2.9 3.2-4.6 1.4-1.7 4-4.8 5.6-6.9 6.4-8.1 14.3-16 21.8-21.6 4.3-3.3 8.2-5.9 8.7-5.9.6 0 2.9-1.2 5.3-2.7 4.3-2.7 6.3-3.3 20.9-6.1 7.9-1.5 9.3-1.5 17 0 14.9 2.9 18.1 3.8 19.8 5.3.9.8 2.4 1.5 3.3 1.5.9 0 1.7.4 1.7 1 0 .5 1.1 1 2.5 1 1.3 0 2.8.6 3.2 1.3.4.7 2.6 2.4 4.8 3.7 2.2 1.3 5.1 3.5 6.5 4.7 1.4 1.3 2.7 2.3 3.1 2.3.3 0 2.1 1.3 3.9 3 1.8 1.6 3.7 3 4.1 3 .4 0 1.2 1.3 1.7 2.9.6 1.6 2 3.2 3.1 3.6 1.2.3 2.1 1 2.1 1.5 0 .8 2.9 4.3 9.3 11.3 2 2.3 3.7 4.7 3.7 5.4 0 .7.4 1.3.9 1.3s1.1.8 1.5 1.7c.3 1 1.5 3.1 2.6 4.8 1.1 1.6 2.4 3.9 3 5 .6 1.1 2.7 4.7 4.6 8 1.9 3.3 3.9 7.1 4.5 8.5.6 1.4 1.8 3.8 2.7 5.5.8 1.6 1.9 3.7 2.3 4.5.5.8 1.5 3.3 2.4 5.5.9 2.2 2.1 4.7 2.6 5.5 1.1 1.8 1.1 1.9 3.4 9.5 1 3.3 2.4 6.9 3 8 .7 1.1 1.5 3.9 1.9 6.3.3 2.4 1 5.1 1.5 6 1.6 3.2 3.3 8.7 4.1 13.2.5 2.5 1.8 7.9 2.9 12 1.2 4.1 2.6 10.4 3.1 14 .5 3.6 1.9 11.4 3.1 17.5 1.1 6 2.5 18.4 3 27.5.4 9.1 1.3 24.1 1.8 33.4.7 13.9 1.1 17 2.5 17.8.9.5 1.6 1.7 1.6 2.7 0 2.3 6.3 8 12 10.8 10.3 5.1 23.3 1.6 31-8.4 4.9-6.2 5-7 5-29.9 0-21.8-.4-27.5-4.1-52.1-1-7.2-1.9-14.8-1.9-16.7 0-3.5-.9-8-3.8-18.6-.8-3-1.8-8-2.2-11-.4-3-1.5-8-2.5-11-.9-3-2.2-8-3-11-1.6-6.5-3.5-12.1-4.6-13.5-.4-.6-1.1-3.1-1.5-5.5-.4-2.5-1.7-6.4-3-8.7-1.2-2.4-2.6-5.8-3-7.5-.3-1.8-1.9-6-3.5-9.3-1.5-3.3-3.7-8.1-4.9-10.7-1.2-2.7-2.6-5-3.1-5.4-.5-.3-.9-1.4-.9-2.6 0-1.1-1.4-4-3-6.5-1.7-2.4-3-4.8-3-5.4 0-1.1-2.8-5.7-4.7-7.7-.7-.7-1.3-1.8-1.3-2.3 0-.5-1.8-3.6-4-6.8-2.2-3.2-4-6.3-4-6.9 0-.6-.9-1.6-2-2.2-1.1-.6-2-1.7-2-2.4s-1.1-2.3-2.5-3.6c-1.4-1.3-2.5-2.8-2.5-3.5 0-.6-.8-1.8-1.7-2.6-1-.9-4-4.3-6.8-7.5-7.3-8.4-13.1-14.3-20.5-20.5-3.5-3-7.1-6-7.8-6.7-.7-.6-1.8-1.2-2.4-1.2-.5 0-1.9-1.1-3-2.5s-2.8-2.5-3.9-2.5c-1 0-1.9-.5-1.9-1.1 0-1.3 4-4.8 5.5-4.9.6 0 2.6-1.3 4.5-3 1.9-1.6 3.9-2.9 4.5-3 .5 0 2.1-1.1 3.5-2.5s6-5.9 10.3-10.1c4.2-4.2 7.7-8 7.7-8.4 0-.5 1.4-2.2 3-3.8 1.7-1.7 3-3.8 3-4.6 0-.9.3-1.6.8-1.6.4 0 1.9-2.1 3.2-4.7 1.4-2.6 3.4-6.3 4.5-8.3 1.1-1.9 2.5-5.3 3.1-7.5 1.2-4 3-9.2 4.5-13 1.3-3.1 4.1-31.6 3.5-35-.3-1.7-1-7.3-1.6-12.5-1.1-9.9-1.8-12.8-5.2-22-3.3-8.6-4.8-11.9-5.8-12.5-.6-.3-1-1.5-1-2.5s-.6-2.5-1.2-3.2c-1.6-1.7-3.2-4.2-5.7-8.9-1.1-2-2.7-3.9-3.6-4.2-.8-.4-1.5-1.2-1.5-1.9 0-1.4-11.4-13.4-17.4-18.3-2-1.7-5-4.2-6.7-5.8-1.7-1.5-3.7-2.7-4.5-2.7-.7 0-1.7-.6-2.1-1.3-.8-1.3-6.9-4.7-8.3-4.7-.5 0-2.5-1.1-4.5-2.4-2-1.4-5-2.8-6.8-3.1-1.8-.4-3.7-1.1-4.2-1.6-1.6-1.2-9.4-3.6-16-4.8-3.3-.6-8-1.5-10.5-2.1-7.7-1.6-23.7-1.1-36.5 1.1-11.5 2-13.2 2.5-20 5.4-1.6.7-5.1 2-7.7 2.9-2.5 1-5.2 2.4-5.8 3.2-.7.7-1.8 1.4-2.5 1.4-2 0-7.6 3.1-8.2 4.6-.3.8-1.3 1.4-2.2 1.4-1 0-3 1.2-4.7 2.8-1.6 1.5-4.5 3.9-6.4 5.4-5 3.8-8.9 7.5-14 13.7-2.5 3-5.2 6.2-6 7-.8.9-2.1 2.9-2.7 4.4-.7 1.5-1.6 2.7-2.1 2.7s-1.7 1.9-2.8 4.2c-1 2.4-2.8 6-4.1 8-1.3 2.1-2.3 4.2-2.3 4.8 0 .6-.9 3.1-2 5.4-3.9 8.6-7 26.8-7 40.9 0 14.7 3.9 35.9 7.6 41.2.8 1.1 1.4 2.8 1.4 3.7 0 1.7.6 3.2 3.1 7.8.5.8 2 3.7 3.4 6.3 1.3 2.7 3.2 5.5 4 6.3.8.9 1.5 2.2 1.5 2.9 0 .7 1.1 2.2 2.5 3.3 1.4 1.1 2.5 2.4 2.5 2.9 0 1.2 19.6 20.3 20.8 20.3 1.2 0 6.7 4.8 6.2 5.3-.3.2-3.8 2.5-7.7 5.1-4 2.6-7.3 5.1-7.3 5.6s-.9 1.1-2 1.5c-1.1.3-3.2 1.8-4.8 3.3-1.5 1.5-4.6 4.3-6.7 6.3-2.2 2-6.8 6.7-10.2 10.5-3.5 3.8-7.1 7.8-8.1 8.9-1 1.1-3.1 4.1-4.8 6.7-3.4 5.5-5.1 6-6.5 1.8-.6-1.7-1.5-3-2-3-.4 0-1.3-1.8-2-3.9-.6-2.1-2.2-5.1-3.5-6.6-1.3-1.6-2.4-3.6-2.4-4.7 0-1-.4-1.8-1-1.8-.5 0-1.2-1.1-1.6-2.4-.3-1.4-1.2-2.7-2-3-.8-.3-1.4-1.3-1.4-2.2 0-.9-1.3-3.3-2.9-5.3-1.5-2-3.5-5-4.4-6.7-.9-1.7-2.3-3.4-3.2-3.7-.8-.4-1.5-1.5-1.5-2.6s-.6-2.4-1.3-2.8c-.8-.4-2.7-2.6-4.3-4.8-4-5.5-6.4-8.4-9.6-11.6-1.6-1.5-2.8-3-2.8-3.3 0-.7-17.5-18-23.7-23.4-6.4-5.7-22.9-17.4-27-19.1-1.1-.6-2.4-1.5-2.8-2-.3-.6-1.8-1.1-3.2-1.1-2.6 0-2.6 0-.7-2.1 1-1.2 3.6-3 5.7-4 2-1.1 3.7-2.4 3.7-2.9 0-.6 1.2-1.5 2.6-2 1.5-.6 3.5-2.2 4.6-3.5 1.1-1.4 2.3-2.5 2.8-2.5s3.9-3.2 7.7-7.1c3.7-3.9 8-8.3 9.6-9.7 1.5-1.5 2.7-3.2 2.7-3.9 0-.6.8-1.9 1.8-2.9 2.2-2.2 10.2-14.4 10.2-15.6 0-.4 1.3-3.2 2.9-6.1 1.6-2.8 3.2-6.7 3.6-8.5.4-1.8 1.3-4.5 2-6 3.5-6.9 7-28.6 6.9-42.7 0-15.1-4-37.5-8.1-45.5-.7-1.4-1.3-3-1.3-3.7 0-1.6-8.7-19-9.7-19.5-.5-.1-1.9-2.3-3.2-4.7-2.5-4.7-2.9-5.2-7.6-10.8-6.7-7.9-9.1-10.6-10.7-12.2-1-.9-3-2.8-4.5-4.4-1.4-1.5-3-2.7-3.4-2.7-.4 0-2.1-1.2-3.7-2.8-5.3-4.9-8-6.8-12.2-8.8-.8-.4-2.8-1.7-4.5-3-1.6-1.2-4.1-2.5-5.5-2.9-1.4-.4-4.1-1.8-6-3-1.9-1.2-4.8-2.5-6.5-2.9-2.7-.6-6.2-2-11.7-4.7-1-.5-2.8-.9-4.1-.9-1.2 0-5-.7-8.2-1.6-3.3-.8-10-2-15-2.5-4.9-.5-10.3-1.1-12-1.3-1.6-.2-6.6.1-11 .6zm26 42.9c5 1.1 10.9 2.3 13.2 2.6 2.3.3 4.7 1.1 5.4 1.9.6.8 1.9 1.4 2.9 1.4s2.3.7 3 1.5c.7.8 2.3 1.5 3.7 1.5 1.3 0 2.6.7 2.9 1.5.4.8 1.4 1.5 2.4 1.5s2 .7 2.4 1.5c.3.8 1.4 1.5 2.4 1.5s2.8 1.3 4 3c1.3 1.6 2.9 3 3.7 3 .8 0 1.5.6 1.5 1.2 0 .7 1.3 2.2 2.8 3.2 1.6 1.1 3.7 3.2 4.8 4.8 1 1.5 2.5 2.8 3.2 2.8.6 0 1.2.6 1.2 1.3 0 .7 1.3 2.7 2.9 4.3 1.6 1.6 3.9 4.9 5.1 7.2 1.2 2.3 2.6 4.2 3.1 4.2s.9.7.9 1.7c0 .9 1.2 4.1 2.7 7.2 2.8 6 4.7 14 6.3 26.4 1.1 8.4 0 25-1.9 30-.6 1.6-1.1 4-1.1 5.4 0 1.4-.6 3.7-1.4 5.1-.8 1.5-2.2 4.5-3.1 6.7-.9 2.2-2 4.7-2.5 5.5-.6.8-1.4 2.5-1.9 3.7-.6 1.1-1.5 2.4-2 2.8-.6.3-1.1 1.3-1.1 2.2 0 .8-1.1 2.4-2.5 3.5s-2.5 2.4-2.5 2.9c0 .6-3.3 4.3-7.4 8.2-10.7 10.4-12.2 11.7-13.6 11.7-.7 0-2.9 1.3-5 3-2.1 1.6-4.2 3-4.7 3-.4 0-3.1 1.2-5.8 2.7-2.8 1.4-6.6 3-8.5 3.4-1.9.4-6.9 1.7-11 3-10.8 3.2-29.2 3.2-40.5 0-4.4-1.3-9.8-2.6-12-3-2.2-.4-5.9-1.9-8.2-3.4-2.4-1.5-5.1-2.7-6.2-2.7-1.1 0-2.4-.6-2.8-1.4-.4-.7-2.4-2.1-4.3-3.1-3-1.5-8.9-6.1-12.5-9.6-.5-.5-1.6-1.5-2.3-2.2-1.4-1.3-3-3-7.4-7.6-1.5-1.6-3.6-4.6-4.7-6.7-1.1-2.1-2.4-4-2.8-4.3-.4-.3-1.8-2.6-3.1-5.1-1.2-2.5-2.7-5.2-3.1-6-.5-.8-2.3-6.1-4.1-11.6-3.1-9.8-3.2-10.8-3.2-27s.1-17.3 3.2-26.9c1.8-5.5 3.6-10.7 4.1-11.5.5-.8 1.9-3.5 3.2-6 5-9.9 9.7-16 17.7-23.6 9.6-8.9 11.6-10.6 14.5-11.8 1.7-.8 4.1-2.3 5.4-3.5 1.3-1.1 3.2-2.1 4.2-2.1s2.1-.5 2.4-1c.3-.6 1.3-1 2.2-1 .9 0 2.4-.7 3.3-1.5 1-.9 3.5-1.8 5.6-2.1 2.2-.3 4.6-.8 5.4-1.2.8-.3 5.1-1.3 9.5-2.3 11.1-2.3 21.3-2.3 32 .2zM305 303.8c6.6 1.3 19.3 6.5 23.6 9.8 1.7 1.3 3.4 2.4 3.9 2.4 2.5 0 18.5 15.3 21.1 20.2.8 1.6 1.9 2.8 2.3 2.8.5 0 1.2 1.3 1.6 3 .4 1.6 1.1 3 1.6 3s.9.6.9 1.4c0 .7.6 1.9 1.4 2.5.8.6 1.6 2.4 1.9 3.9.3 1.5 1.7 6 3.1 10 2.6 7 2.7 8 2.4 24-.4 15.3-.6 17.3-3.1 23.7-1.4 3.8-2.7 7.8-2.7 8.7 0 .9-.6 2.1-1.3 2.5-.6.4-2.2 2.8-3.5 5.3-1.3 2.5-3.3 5.8-4.6 7.5-3.2 4.4-15.3 16.5-16.5 16.5-.5 0-1.8 1.1-2.9 2.5-1.1 1.4-2.7 2.5-3.5 2.5-.9 0-2.2.6-2.9 1.2-2 1.9-7.3 4.3-16.8 7.6-9.7 3.4-22.9 4.9-25.9 3-1.4-.9-2.3-.9-3.3-.1-.9.8-3.8.9-9.3.4-7.2-.8-10.1-1.5-17-4.2-1.1-.4-3.1-1.1-4.5-1.5-1.4-.4-4.2-1.8-6.2-3-2.1-1.3-4.1-2.4-4.6-2.4s-1.7-.9-2.7-2c-1-1.1-2.2-2-2.7-2-1.2 0-2.8-1.4-9.1-7.6-10-9.7-14.4-16-19.4-27.4-4.6-10.4-5.6-16.3-5.7-32.5 0-15.5 1.4-24.2 5-31.1 1.3-2.5 2.4-5.1 2.4-5.8 0-.7.9-2.3 2-3.6 1.1-1.3 2-2.9 2-3.7 0-.7.4-1.3.9-1.3s1.2-.9 1.6-2c.3-1.1 1.8-3.3 3.3-4.8 1.5-1.6 4.4-4.8 6.5-7.1 2.1-2.2 4.2-4.1 4.6-4.1.4 0 2-1.4 3.6-3 1.6-1.7 3.3-3 3.8-3s2.9-1.4 5.4-3c2.4-1.7 4.8-3 5.4-3 .5 0 3.9-1.4 7.4-3 3.5-1.7 7.9-3 9.7-3.1 1.8-.1 4.4-.5 5.8-.9 3.2-1.1 27.9-.5 35 .8zm603.2 0c3.1.6 6.9 1.7 8.5 2.5 1.5.8 4.4 2.1 6.3 2.8 6.4 2.2 17.3 9.5 24.2 16.2 5.7 5.5 12.8 14.4 12.8 15.9 0 .5 1.1 2.4 2.3 4.1 1.3 1.8 3.4 6.1 4.7 9.7 1.3 3.6 2.7 6.9 3.1 7.5.4.5 1.2 5.8 1.8 11.7 1.8 16.4-.1 31.2-5 41-.5 1-.9 2.7-.9 3.7 0 1.1-.5 2.3-1.1 2.6-.5.4-1.5 1.7-2 2.8-3.1 6.9-6.4 11.2-15.1 19.7-7.3 7.1-14.5 13-15.9 13-.5 0-2.6 1.1-4.7 2.3-2 1.3-8 3.9-13.2 5.7-9.4 3.2-9.8 3.3-26.5 3.2-16.8-.1-17.1-.1-26.9-3.5-5.4-1.9-10.3-4-10.9-4.6-.6-.6-1.7-1.1-2.4-1.1s-1.3-.5-1.3-1c0-.6-.8-1-1.9-1-1 0-3-1.1-4.5-2.5s-3.1-2.5-3.5-2.5c-1.2 0-12.1-10.9-15.5-15.4-5-6.7-9.6-13.7-9.6-14.8 0-.5-.9-3-2.1-5.6-1.1-2.6-2.4-5.6-2.8-6.7-1.3-3.1-3.3-17.8-3.3-24.2 0-9.2 2.2-21.2 5.3-29.2 1.6-4 2.9-8 2.9-8.8 0-.7.7-1.6 1.5-1.9.9-.4 2.3-2.3 3.3-4.4 1.4-3.2 10.3-14.2 13.7-17.1.6-.4 2.8-2.3 5-4.2 2.2-1.8 5.6-4.1 7.6-5 2-.9 4.2-2.3 4.9-3.2.7-.8 1.9-1.5 2.6-1.5.8 0 2.2-.4 3.2-.9 6.8-3.5 11.4-5.1 14.3-5.2 1.9 0 4.3-.4 5.4-.9 2.5-1.2 28-.6 35.7.8zM417 704.8c0 2.7 1.5 10.2 4.4 22.2.9 3.6 1.6 8.2 1.6 10.4 0 2.1.4 5.5.9 7.5.6 2 1.9 9.7 3 17.1 4.7 31.7 4.3 69.7-.9 78.2-2.2 3.8-6 5.2-6 2.4 0-.8-.5-1.6-1.1-1.8-.6-.2-1.5-2.1-1.9-4.3-.5-2.2-1.6-6.7-2.5-10-.9-3.3-2-8-2.4-10.5-1.6-8.5-2.1-41.5-1.2-66 .9-21.3 1.5-28.6 3.7-44.8.6-3.9 2.4-4.3 2.4-.4zm340.3 9.2c.3 5.8 1.2 18.6 2.1 28.5 2.6 30 2 50.5-2.4 81.4-.5 4.1-1.4 7.9-2 8.5-.5.5-1 1.7-1 2.5s-.8 3.2-1.7 5.2c-2 4.2-5.9 5.4-6.9 2.1-.3-.9-1-2.6-1.4-3.7-4.4-10.3-5.1-33.8-1.9-59 1.1-8.8 2.5-20.1 2.9-25 .5-5 1.9-13.3 3-18.5 1.2-5.2 2.5-12.7 3-16.6 1-8.3 3.9-17.9 5.1-16.7.4.4 1 5.5 1.2 11.3z"/></svg>